<?xml version="1.0" encoding="UTF-8" standalone="no"?>
<svg width="280px" height="260px" viewBox="0 0 280 260" version="1.1" xmlns="http://www.w3.org/2000/svg" xmlns:xlink="http://www.w3.org/1999/xlink">
    <!-- Generator: Sketch 39 (31667) - http://www.bohemiancoding.com/sketch -->
    <title>Page 1</title>
    <desc>Created with Sketch.</desc>
    <defs>
        <polygon id="path-1" points="279.86 133.751 279.86 0.306 -7.86278906e-05 0.306 -7.86278906e-05 133.751 279.86 133.751"></polygon>
    </defs>
    <g id="Page-1" stroke="none" stroke-width="1" fill="none" fill-rule="evenodd">
        <g id="1" transform="translate(-235.000000, -809.000000)">
            <g id="Comment_Just" transform="translate(0.000000, 739.000000)">
                <g id="Page-1" transform="translate(235.000000, 74.000000)">
                    <path d="M232.4492,93.5822 C232.4492,144.7142 190.9982,186.1652 139.8662,186.1652 C88.7342,186.1652 47.2842,144.7142 47.2842,93.5822 C47.2842,42.4502 88.7342,0.9992 139.8662,0.9992 C190.9982,0.9992 232.4492,42.4502 232.4492,93.5822 L232.4492,93.5822 Z" id="Stroke-1" stroke="#E0E0E1" stroke-width="10"></path>
                    <path d="M78.1293,220.2151 L78.1293,237.9841 C78.1293,245.0461 83.8543,250.7721 90.9173,250.7721 L90.9173,250.7721 C97.9803,250.7721 103.7053,245.0461 103.7053,237.9841 L103.7053,226.0551" id="Stroke-3" stroke="#E0E0E1" stroke-width="10" stroke-linecap="round" stroke-linejoin="round"></path>
                    <path d="M200.5681,220.2151 L200.5681,237.9841 C200.5681,245.0461 194.8431,250.7721 187.7801,250.7721 L187.7801,250.7721 C180.7171,250.7721 174.9921,245.0461 174.9921,237.9841 L174.9921,226.0551" id="Stroke-5" stroke="#E0E0E1" stroke-width="10" stroke-linecap="round" stroke-linejoin="round"></path>
                    <path d="M139.8665,223.5236 C121.0695,223.5236 97.8555,220.9576 81.6925,218.8046 C65.2965,216.6216 51.6095,204.9696 46.8225,189.1206 L46.7665,188.9456 L40.1275,169.5626 C38.5955,164.6206 34.5025,160.9346 29.4185,159.9326 C23.2375,158.7146 17.4715,155.5296 13.1845,150.9646 C7.4155,144.8216 4.5315,136.7846 5.0625,128.3346 C6.0255,113.0346 18.3035,100.9036 33.6205,100.1176 C34.1355,100.0906 34.6475,100.0786 35.1595,100.0786 C46.4635,100.0786 56.7415,106.2826 61.9815,116.2696 C62.7955,117.8196 63.8175,121.7366 65.1085,128.2456 C66.1715,133.6046 70.7215,137.5956 76.1745,137.9526 C95.8785,139.2436 122.9245,140.7826 139.8665,140.7826 C156.6465,140.7826 183.8345,139.2346 203.6875,137.9366 C209.1405,137.5816 213.6915,133.5886 214.7545,128.2296 C216.0435,121.7306 217.0645,117.8186 217.8775,116.2706 C223.1175,106.2836 233.4125,100.0796 244.7415,100.0796 C245.2405,100.0796 245.7415,100.0916 246.2425,100.1176 C261.5545,100.9016 273.8335,113.0316 274.7975,128.3326 C275.3295,136.7826 272.4455,144.8196 266.6765,150.9636 C262.3895,155.5296 256.6245,158.7136 250.4415,159.9326 C245.3575,160.9346 241.2625,164.6206 239.7325,169.5646 L232.9675,189.3506 L232.9415,189.4376 C228.2295,205.0356 214.7635,216.4846 198.6345,218.6056 C181.5655,220.8486 157.5135,223.5236 139.8665,223.5236" id="Fill-7" fill="#FAFAFA"></path>
                    <g id="Group-11" transform="translate(0.000000, 94.772000)">
                        <mask id="mask-2" fill="white">
                            <use xlink:href="#path-1"></use>
                        </mask>
                        <g id="Clip-10"></g>
                        <path d="M35.1594,0.306 C34.5624,0.306 33.9644,0.321 33.3644,0.352 C15.5084,1.268 1.1954,15.411 0.0724,33.249 C-0.5466,43.09 2.8154,52.455 9.5404,59.616 C14.6094,65.013 21.2694,68.651 28.4514,70.067 C31.7404,70.715 34.4014,73.124 35.3704,76.333 L42.0364,95.793 C47.3884,113.517 62.6954,126.547 81.0324,128.989 C97.3474,131.161 120.7974,133.751 139.8664,133.751 C157.7904,133.751 182.0724,131.053 199.2864,128.79 C217.3604,126.413 232.4494,113.586 237.7274,96.111 L244.4894,76.333 C245.4584,73.124 248.1194,70.715 251.4084,70.067 C258.5914,68.651 265.2524,65.012 270.3214,59.615 C277.0464,52.453 280.4074,43.087 279.7874,33.246 C278.6634,15.408 264.3494,1.266 246.4914,0.351 C245.9074,0.322 245.3234,0.307 244.7424,0.307 C231.7064,0.307 219.5474,7.554 213.4494,19.175 C212.6854,20.63 211.6614,23.35 209.8504,32.485 C209.2264,35.631 206.5634,37.967 203.3624,38.176 C183.5874,39.469 156.5184,41.01 139.8664,41.01 C123.0594,41.01 96.1294,39.478 76.5004,38.191 C73.3004,37.982 70.6374,35.647 70.0134,32.501 C68.1984,23.35 67.1734,20.629 66.4094,19.174 C60.3184,7.567 48.1814,0.306 35.1594,0.306 M35.1594,10.306 L35.1594,10.306 C44.4554,10.306 53.2464,15.611 57.5554,23.821 C57.7004,24.099 58.5124,25.915 60.2034,34.446 C61.7064,42.022 68.1384,47.665 75.8464,48.17 C95.6184,49.466 122.7764,51.01 139.8664,51.01 C156.7904,51.01 184.0914,49.457 204.0144,48.155 C211.7234,47.65 218.1564,42.007 219.6594,34.429 C221.3474,25.912 222.1584,24.1 222.3044,23.822 C226.6124,15.612 235.4194,10.308 244.7424,10.308 C245.1574,10.308 245.5784,10.318 245.9794,10.338 C258.7594,10.993 269.0024,21.111 269.8064,33.874 C270.2514,40.932 267.8454,47.642 263.0324,52.769 C259.4544,56.579 254.6394,59.238 249.4744,60.255 C242.6084,61.608 237.0734,66.574 234.9794,73.238 L228.2654,92.876 L228.2074,93.046 L228.1554,93.219 C224.0114,106.94 212.1674,117.01 197.9834,118.876 C181.0614,121.1 157.2434,123.751 139.8664,123.751 C121.3434,123.751 98.3664,121.209 82.3524,119.076 C67.8974,117.151 55.8294,106.878 51.6094,92.902 L51.5564,92.726 L51.4964,92.553 L44.8794,73.235 C42.7854,66.572 37.2504,61.608 30.3854,60.255 C25.2214,59.238 20.4074,56.579 16.8294,52.77 C12.0154,47.643 9.6084,40.933 10.0534,33.877 C10.8564,21.113 21.0984,10.994 33.8764,10.339 C34.3024,10.317 34.7334,10.306 35.1594,10.306" id="Fill-9" fill="#E0E0E1" mask="url(#mask-2)"></path>
                    </g>
                    <path d="M121.1214,64.4207 C121.1214,68.1317 118.1134,71.1397 114.4024,71.1397 C110.6914,71.1397 107.6834,68.1317 107.6834,64.4207 C107.6834,60.7097 110.6914,57.7017 114.4024,57.7017 C118.1134,57.7017 121.1214,60.7097 121.1214,64.4207" id="Fill-12" fill="#E0E0E1"></path>
                    <path d="M172.0501,64.4207 C172.0501,68.1317 169.0421,71.1397 165.3311,71.1397 C161.6201,71.1397 158.6121,68.1317 158.6121,64.4207 C158.6121,60.7097 161.6201,57.7017 165.3311,57.7017 C169.0421,57.7017 172.0501,60.7097 172.0501,64.4207" id="Fill-14" fill="#E0E0E1"></path>
                    <path d="M107.3544,93.4485 C116.3464,101.5885 127.6184,106.4455 139.8664,106.4455 C152.1144,106.4455 163.3874,101.5885 172.3784,93.4485" id="Stroke-16" stroke="#E0E0E1" stroke-width="10" stroke-linecap="round" stroke-linejoin="round"></path>
                </g>
            </g>
        </g>
    </g>
</svg>